<?xml version="1.0" encoding="UTF-8"?>
<svg id="Layer_2" xmlns="http://www.w3.org/2000/svg" viewBox="0 0 40.25 9.49">
  <defs>
    <style>
      .cls-1 {
        fill: #67a944;
      }

      .cls-2 {
        fill: #fff;
      }
    </style>
  </defs>
  <g id="Layer_2-2" data-name="Layer_2">
    <g>
      <rect class="cls-1" width="40.25" height="9.49" rx="2.42" ry="2.42"/>
      <path class="cls-2" d="M7.04,6.22h0c-.18,0-.35-.07-.48-.21l-2.09-2.15c-.13-.14-.13-.35,0-.49.14-.13.35-.13.49,0l2.09,2.15,2.06-2.15c.13-.14.35-.14.49,0,.14.13.14.35,0,.49l-2.09,2.15c-.13.13-.3.21-.48.21Z"/>
      <g>
        <path class="cls-2" d="M18.71,5.66h-1.2l-.21.59h-.49l1.03-2.87h.54l1.03,2.87h-.49l-.21-.59ZM18.57,5.28l-.47-1.33-.47,1.33h.94Z"/>
        <path class="cls-2" d="M19.84,4.49c.09-.18.23-.31.39-.41.17-.1.36-.14.58-.14.27,0,.5.07.68.2s.3.32.36.56h-.51c-.04-.11-.11-.2-.2-.26-.09-.06-.2-.09-.34-.09-.19,0-.35.07-.46.2-.11.14-.17.33-.17.57s.06.44.17.57c.11.14.27.21.46.21.27,0,.45-.12.54-.36h.51c-.07.23-.19.41-.37.55-.18.14-.41.2-.68.2-.22,0-.41-.05-.58-.15-.17-.1-.3-.24-.39-.41s-.14-.38-.14-.62.05-.44.14-.62Z"/>
        <path class="cls-2" d="M22.31,4.49c.09-.18.23-.31.39-.41.17-.1.36-.14.58-.14.27,0,.5.07.68.2s.3.32.36.56h-.51c-.04-.11-.11-.2-.2-.26-.09-.06-.2-.09-.34-.09-.19,0-.35.07-.46.2-.11.14-.17.33-.17.57s.06.44.17.57c.11.14.27.21.46.21.27,0,.45-.12.54-.36h.51c-.07.23-.19.41-.37.55-.18.14-.41.2-.68.2-.22,0-.41-.05-.58-.15-.17-.1-.3-.24-.39-.41s-.14-.38-.14-.62.05-.44.14-.62Z"/>
        <path class="cls-2" d="M26.86,3.98v2.27h-.47v-.27c-.07.09-.17.17-.29.22-.12.05-.25.08-.38.08-.18,0-.34-.04-.48-.11s-.25-.18-.33-.33c-.08-.15-.12-.32-.12-.53v-1.34h.47v1.27c0,.2.05.36.15.47.1.11.24.16.42.16s.32-.05.42-.16c.1-.11.15-.26.15-.47v-1.27h.47Z"/>
        <path class="cls-2" d="M28.22,4.04c.11-.06.25-.1.41-.1v.49h-.12c-.18,0-.32.05-.42.14-.09.09-.14.26-.14.49v1.2h-.47v-2.27h.47v.33c.07-.12.16-.21.27-.27Z"/>
        <path class="cls-2" d="M29.05,4.5c.09-.18.22-.31.39-.41.16-.1.34-.15.54-.15.18,0,.33.04.47.11.13.07.24.16.32.26v-.33h.47v2.27h-.47v-.34c-.08.11-.19.2-.33.27-.14.07-.29.11-.47.11-.2,0-.37-.05-.54-.15s-.29-.24-.39-.42c-.09-.18-.14-.38-.14-.61s.05-.43.14-.61ZM30.67,4.7c-.06-.12-.15-.2-.25-.26-.1-.06-.22-.09-.34-.09s-.23.03-.34.09c-.1.06-.19.15-.25.26s-.1.25-.1.41.03.29.1.41c.06.12.15.21.26.27.11.06.22.09.34.09s.23-.03.34-.09c.1-.06.19-.15.25-.27.06-.12.1-.25.1-.41s-.03-.29-.1-.41Z"/>
        <path class="cls-2" d="M31.84,4.49c.09-.18.23-.31.39-.41.17-.1.36-.14.58-.14.27,0,.5.07.68.2s.3.32.36.56h-.51c-.04-.11-.11-.2-.2-.26-.09-.06-.2-.09-.34-.09-.19,0-.35.07-.46.2-.11.14-.17.33-.17.57s.06.44.17.57c.11.14.27.21.46.21.27,0,.45-.12.54-.36h.51c-.07.23-.19.41-.37.55-.18.14-.41.2-.68.2-.22,0-.41-.05-.58-.15-.17-.1-.3-.24-.39-.41s-.14-.38-.14-.62.05-.44.14-.62Z"/>
        <path class="cls-2" d="M36.38,3.98l-1.39,3.34h-.49l.46-1.11-.89-2.23h.52l.64,1.73.66-1.73h.49Z"/>
      </g>
    </g>
  </g>
</svg>