<?xml version="1.0" encoding="UTF-8"?>
<svg id="Layer_2" xmlns="http://www.w3.org/2000/svg" viewBox="0 0 40.25 9.49">
  <defs>
    <style>
      .cls-1 {
        fill: #fff;
      }

      .cls-2 {
        fill: #3e8bca;
      }
    </style>
  </defs>
  <g id="Layer_2-2" data-name="Layer_2">
    <g>
      <rect class="cls-2" width="40.25" height="9.49" rx="2.42" ry="2.42"/>
      <g>
        <path class="cls-1" d="M18.68,4.92c.11.13.16.29.16.46,0,.15-.04.28-.11.39-.08.12-.18.21-.33.28-.14.07-.31.1-.5.1h-1.15v-2.87h1.09c.2,0,.36.03.5.1.14.07.25.15.32.27.07.11.11.24.11.37,0,.16-.04.3-.13.41-.09.11-.21.19-.35.24.15.03.28.11.39.24ZM17.22,4.48h.58c.15,0,.27-.04.36-.11.09-.07.13-.17.13-.3s-.04-.23-.13-.3c-.09-.07-.21-.11-.36-.11h-.58v.82ZM18.23,5.65c.09-.08.14-.18.14-.32s-.05-.25-.14-.33c-.1-.08-.22-.12-.38-.12h-.62v.89h.64c.16,0,.28-.04.38-.12Z"/>
        <path class="cls-1" d="M19.34,4.39c.09-.18.22-.31.39-.41.16-.1.34-.15.54-.15.18,0,.33.04.47.11.13.07.24.16.32.26v-.33h.47v2.27h-.47v-.34c-.08.11-.19.2-.33.27-.14.07-.29.11-.47.11-.2,0-.37-.05-.54-.15s-.29-.24-.39-.42c-.09-.18-.14-.38-.14-.61s.05-.43.14-.61ZM20.96,4.6c-.06-.12-.15-.2-.25-.26-.1-.06-.22-.09-.34-.09s-.23.03-.34.09c-.1.06-.19.15-.25.26s-.1.25-.1.41.03.29.1.41c.06.12.15.21.26.27.11.06.22.09.34.09s.23-.03.34-.09c.1-.06.19-.15.25-.27.06-.12.1-.25.1-.41s-.03-.29-.1-.41Z"/>
        <path class="cls-1" d="M22.62,3.09v3.05h-.47v-3.05h.47Z"/>
        <path class="cls-1" d="M23.22,4.39c.09-.18.22-.31.39-.41.16-.1.34-.15.54-.15.18,0,.33.04.47.11.13.07.24.16.32.26v-.33h.47v2.27h-.47v-.34c-.08.11-.19.2-.33.27-.14.07-.29.11-.47.11-.2,0-.37-.05-.54-.15s-.29-.24-.39-.42c-.09-.18-.14-.38-.14-.61s.05-.43.14-.61ZM24.84,4.6c-.06-.12-.15-.2-.25-.26-.1-.06-.22-.09-.34-.09s-.23.03-.34.09c-.1.06-.19.15-.25.26s-.1.25-.1.41.03.29.1.41c.06.12.15.21.26.27.11.06.22.09.34.09s.23-.03.34-.09c.1-.06.19-.15.25-.27.06-.12.1-.25.1-.41s-.03-.29-.1-.41Z"/>
        <path class="cls-1" d="M27.66,3.95c.14.07.25.18.33.33.08.15.12.32.12.53v1.34h-.47v-1.27c0-.2-.05-.36-.15-.47-.1-.11-.24-.16-.42-.16s-.32.05-.42.16c-.1.11-.15.26-.15.47v1.27h-.47v-2.27h.47v.26c.08-.09.18-.17.29-.22.12-.05.25-.08.38-.08.18,0,.34.04.48.11Z"/>
        <path class="cls-1" d="M28.69,4.39c.09-.18.23-.31.39-.41.17-.1.36-.14.58-.14.27,0,.5.07.68.2s.3.32.36.56h-.51c-.04-.11-.11-.2-.2-.26-.09-.06-.2-.09-.34-.09-.19,0-.35.07-.46.2-.11.14-.17.33-.17.57s.06.44.17.57c.11.14.27.21.46.21.27,0,.45-.12.54-.36h.51c-.07.23-.19.41-.37.55-.18.14-.41.2-.68.2-.22,0-.41-.05-.58-.15-.17-.1-.3-.24-.39-.41s-.14-.38-.14-.62.05-.44.14-.62Z"/>
        <path class="cls-1" d="M33.25,5.18h-1.74c.01.18.08.33.2.44.12.11.27.16.45.16.25,0,.43-.11.54-.32h.51c-.07.21-.19.38-.37.51-.18.13-.4.2-.67.2-.22,0-.41-.05-.58-.15-.17-.1-.31-.24-.4-.41-.1-.18-.15-.38-.15-.62s.05-.44.14-.62.23-.31.4-.41c.17-.1.37-.14.59-.14s.41.05.57.14c.17.09.3.22.39.39s.14.36.14.58c0,.09,0,.16-.02.23ZM32.77,4.8c0-.17-.06-.31-.19-.42-.12-.1-.27-.16-.45-.16-.16,0-.3.05-.42.15-.12.1-.18.24-.21.42h1.26Z"/>
        <path class="cls-1" d="M33.71,4.39c.09-.18.22-.31.39-.41.16-.1.35-.15.55-.15.15,0,.29.03.44.1s.26.15.34.26v-1.1h.47v3.05h-.47v-.34c-.08.11-.18.2-.32.27s-.29.11-.47.11c-.2,0-.38-.05-.54-.15s-.29-.24-.39-.42c-.09-.18-.14-.38-.14-.61s.05-.43.14-.61ZM35.33,4.6c-.06-.12-.15-.2-.25-.26-.1-.06-.22-.09-.34-.09s-.23.03-.34.09c-.1.06-.19.15-.25.26s-.1.25-.1.41.03.29.1.41c.06.12.15.21.26.27.11.06.22.09.34.09s.23-.03.34-.09c.1-.06.19-.15.25-.27.06-.12.1-.25.1-.41s-.03-.29-.1-.41Z"/>
      </g>
      <path class="cls-1" d="M9.36,5.09h-4.65c-.19,0-.34-.15-.34-.34s.15-.34.34-.34h4.65c.19,0,.34.15.34.34s-.15.34-.34.34Z"/>
    </g>
  </g>
</svg>