<?xml version="1.0" encoding="UTF-8"?>
<svg id="Layer_2" xmlns="http://www.w3.org/2000/svg" viewBox="0 0 40.25 9.49">
  <defs>
    <style>
      .cls-1 {
        fill: #fff;
      }

      .cls-2 {
        fill: #e54545;
      }
    </style>
  </defs>
  <g id="Layer_2-2" data-name="Layer_2">
    <g>
      <rect class="cls-2" width="40.25" height="9.49" rx="2.42" ry="2.42"/>
      <g>
        <path class="cls-1" d="M18.81,3.66v.84h.99v.38h-.99v.88h1.11v.38h-1.58v-2.87h1.58v.38h-1.11Z"/>
        <path class="cls-1" d="M21.47,4.99l.73,1.15h-.53l-.49-.77-.46.77h-.49l.73-1.12-.73-1.15h.53l.49.77.46-.77h.49l-.73,1.12Z"/>
        <path class="cls-1" d="M23.1,4.26v1.26c0,.09.02.15.06.18.04.04.11.06.2.06h.29v.39h-.37c-.21,0-.37-.05-.49-.15s-.17-.26-.17-.48v-1.26h-.27v-.38h.27v-.56h.47v.56h.55v.38h-.55Z"/>
        <path class="cls-1" d="M24.83,3.93c.11-.06.25-.1.41-.1v.49h-.12c-.18,0-.32.05-.42.14-.09.09-.14.26-.14.49v1.2h-.47v-2.27h.47v.33c.07-.12.16-.21.27-.27Z"/>
        <path class="cls-1" d="M27.74,5.18h-1.74c.01.18.08.33.2.44.12.11.27.16.45.16.25,0,.43-.11.54-.32h.51c-.07.21-.19.38-.37.51-.18.13-.4.2-.67.2-.22,0-.41-.05-.58-.15-.17-.1-.31-.24-.4-.41-.1-.18-.15-.38-.15-.62s.05-.44.14-.62.23-.31.4-.41c.17-.1.37-.14.59-.14s.41.05.57.14c.17.09.3.22.39.39s.14.36.14.58c0,.09,0,.16-.02.23ZM27.27,4.8c0-.17-.06-.31-.19-.42-.12-.1-.27-.16-.45-.16-.16,0-.3.05-.42.15-.12.1-.18.24-.21.42h1.26Z"/>
        <path class="cls-1" d="M31.45,3.95c.14.07.25.18.33.33.08.15.12.32.12.53v1.34h-.47v-1.27c0-.2-.05-.36-.15-.47-.1-.11-.24-.16-.42-.16s-.32.05-.42.16c-.1.11-.15.26-.15.47v1.27h-.47v-1.27c0-.2-.05-.36-.15-.47-.1-.11-.24-.16-.42-.16s-.32.05-.42.16c-.1.11-.15.26-.15.47v1.27h-.47v-2.27h.47v.26c.08-.09.17-.17.29-.22.12-.05.24-.08.38-.08.18,0,.34.04.49.12.14.08.25.19.33.33.07-.14.18-.25.32-.33.15-.08.3-.12.47-.12.18,0,.34.04.48.11Z"/>
        <path class="cls-1" d="M34.57,5.18h-1.74c.01.18.08.33.2.44.12.11.27.16.45.16.25,0,.43-.11.54-.32h.51c-.07.21-.19.38-.37.51-.18.13-.4.2-.67.2-.22,0-.41-.05-.58-.15-.17-.1-.31-.24-.4-.41-.1-.18-.15-.38-.15-.62s.05-.44.14-.62.23-.31.4-.41c.17-.1.37-.14.59-.14s.41.05.57.14c.17.09.3.22.39.39s.14.36.14.58c0,.09,0,.16-.02.23ZM34.09,4.8c0-.17-.06-.31-.19-.42-.12-.1-.27-.16-.45-.16-.16,0-.3.05-.42.15-.12.1-.18.24-.21.42h1.26Z"/>
      </g>
      <g>
        <path class="cls-1" d="M9.36,6.06c-.09,0-.18-.03-.25-.1l-2.09-2.15-2.06,2.15c-.13.14-.35.14-.49,0-.14-.13-.14-.35,0-.49l2.09-2.15c.13-.13.3-.21.48-.21h0c.18,0,.35.07.48.21l2.09,2.15c.13.14.13.35,0,.49-.07.06-.15.1-.24.1Z"/>
        <path class="cls-1" d="M8.54,6.92c-.07,0-.13-.03-.18-.08l-1.32-1.35-1.32,1.35c-.1.1-.26.1-.36,0-.1-.1-.1-.26,0-.36l1.35-1.39c.09-.09.21-.14.34-.14h0c.13,0,.24.05.34.14l1.35,1.39c.1.1.1.27,0,.36-.05.05-.11.07-.18.07Z"/>
        <g>
          <path class="cls-1" d="M10.51,3.13h-1.58c-.13,0-.24-.11-.24-.24s.11-.24.24-.24h1.58c.13,0,.24.11.24.24s-.11.24-.24.24Z"/>
          <path class="cls-1" d="M9.72,3.92c-.13,0-.24-.11-.24-.24v-1.58c0-.13.11-.24.24-.24s.24.11.24.24v1.58c0,.13-.11.24-.24.24Z"/>
        </g>
      </g>
    </g>
  </g>
</svg>