<?xml version="1.0" encoding="UTF-8"?>
<svg id="Layer_2" xmlns="http://www.w3.org/2000/svg" viewBox="0 0 40.25 9.49">
  <defs>
    <style>
      .cls-1 {
        fill: #fff;
      }

      .cls-2 {
        fill: #7428ea;
      }
    </style>
  </defs>
  <g id="Layer_2-2" data-name="Layer_2">
    <g>
      <rect class="cls-2" width="40.25" height="9.49" rx="2.42" ry="2.42"/>
      <path class="cls-1" d="M9.36,6.22c-.09,0-.18-.03-.25-.1l-2.09-2.15-2.06,2.15c-.13.14-.35.14-.49,0-.14-.13-.14-.35,0-.49l2.09-2.15c.13-.13.3-.21.48-.21h0c.18,0,.35.07.48.21l2.09,2.15c.13.14.13.35,0,.49-.07.06-.15.1-.24.1Z"/>
      <g>
        <path class="cls-1" d="M20.59,6.17c-.15-.07-.28-.16-.36-.29-.09-.12-.13-.27-.13-.43h.5c.01.12.06.23.15.31s.21.12.36.12.29-.04.38-.12.14-.18.14-.3c0-.1-.03-.17-.08-.24-.06-.06-.13-.11-.21-.14-.08-.03-.2-.07-.35-.11-.19-.05-.34-.1-.46-.15-.12-.05-.22-.13-.3-.24-.08-.11-.12-.25-.12-.43,0-.16.04-.31.12-.43.08-.12.2-.22.35-.28.15-.07.32-.1.52-.1.28,0,.51.07.68.21.18.14.28.33.29.57h-.52c0-.1-.06-.19-.15-.27-.09-.07-.21-.11-.36-.11-.13,0-.24.03-.33.1-.09.07-.13.17-.13.3,0,.09.03.16.08.22.05.06.12.1.2.13.08.03.2.07.34.11.19.05.34.1.46.16s.22.13.31.24c.08.11.13.25.13.44,0,.15-.04.28-.12.41s-.19.23-.34.31-.33.12-.53.12c-.19,0-.37-.03-.52-.1Z"/>
        <path class="cls-1" d="M23.45,4.04c.14-.07.29-.11.47-.11.2,0,.38.05.54.15.16.1.29.23.39.41.09.18.14.38.14.61s-.05.43-.14.61c-.09.18-.22.32-.39.42s-.34.15-.54.15c-.17,0-.33-.04-.46-.11-.13-.07-.24-.16-.33-.26v1.41h-.47v-3.35h.47v.33c.08-.1.19-.19.33-.26ZM24.41,4.69c-.06-.11-.15-.2-.26-.26-.11-.06-.22-.09-.34-.09s-.23.03-.34.09c-.11.06-.19.15-.26.26s-.1.25-.1.41.03.29.1.41c.06.12.15.21.26.27.11.06.22.09.34.09s.23-.03.34-.09c.11-.06.19-.15.26-.27.06-.12.1-.26.1-.41s-.03-.29-.1-.41Z"/>
        <path class="cls-1" d="M27.51,5.28h-1.74c.01.18.08.33.2.44.12.11.27.16.45.16.25,0,.43-.11.54-.32h.51c-.07.21-.19.38-.37.51-.18.13-.4.2-.67.2-.22,0-.41-.05-.58-.15-.17-.1-.31-.24-.4-.41-.1-.18-.15-.38-.15-.62s.05-.44.14-.62.23-.31.4-.41c.17-.1.37-.14.59-.14s.41.05.57.14c.17.09.3.22.39.39s.14.36.14.58c0,.09,0,.16-.02.23ZM27.04,4.9c0-.17-.06-.31-.19-.42-.12-.1-.27-.16-.45-.16-.16,0-.3.05-.42.15-.12.1-.18.24-.21.42h1.26Z"/>
        <path class="cls-1" d="M30.06,5.28h-1.74c.01.18.08.33.2.44.12.11.27.16.45.16.25,0,.43-.11.54-.32h.51c-.07.21-.19.38-.37.51-.18.13-.4.2-.67.2-.22,0-.41-.05-.58-.15-.17-.1-.31-.24-.4-.41-.1-.18-.15-.38-.15-.62s.05-.44.14-.62.23-.31.4-.41c.17-.1.37-.14.59-.14s.41.05.57.14c.17.09.3.22.39.39s.14.36.14.58c0,.09,0,.16-.02.23ZM29.58,4.9c0-.17-.06-.31-.19-.42-.12-.1-.27-.16-.45-.16-.16,0-.3.05-.42.15-.12.1-.18.24-.21.42h1.26Z"/>
        <path class="cls-1" d="M30.52,4.49c.09-.18.22-.31.39-.41.16-.1.35-.15.55-.15.15,0,.29.03.44.1s.26.15.34.26v-1.1h.47v3.05h-.47v-.34c-.08.11-.18.2-.32.27s-.29.11-.47.11c-.2,0-.38-.05-.54-.15s-.29-.24-.39-.42c-.09-.18-.14-.38-.14-.61s.05-.43.14-.61ZM32.14,4.7c-.06-.12-.15-.2-.25-.26-.1-.06-.22-.09-.34-.09s-.23.03-.34.09c-.1.06-.19.15-.25.26s-.1.25-.1.41.03.29.1.41c.06.12.15.21.26.27.11.06.22.09.34.09s.23-.03.34-.09c.1-.06.19-.15.25-.27.06-.12.1-.25.1-.41s-.03-.29-.1-.41Z"/>
      </g>
    </g>
  </g>
</svg>