<?xml version="1.0" encoding="UTF-8"?>
<svg id="Layer_2" xmlns="http://www.w3.org/2000/svg" viewBox="0 0 40.25 9.49">
  <defs>
    <style>
      .cls-1 {
        fill: #fff;
      }

      .cls-2 {
        fill: #c94bbd;
      }
    </style>
  </defs>
  <g id="Layer_2-2" data-name="Layer_2">
    <g>
      <rect class="cls-2" width="40.25" height="9.49" rx="2.42" ry="2.42"/>
      <g>
        <path class="cls-1" d="M23.64,3.32v.38h-.76v2.48h-.47v-2.48h-.77v-.38h2Z"/>
        <path class="cls-1" d="M26.18,5.22h-1.74c.01.18.08.33.2.44.12.11.27.16.45.16.25,0,.43-.11.54-.32h.51c-.07.21-.19.38-.37.51-.18.13-.4.2-.67.2-.22,0-.41-.05-.58-.15-.17-.1-.31-.24-.4-.41-.1-.18-.15-.38-.15-.62s.05-.44.14-.62.23-.31.4-.41c.17-.1.37-.14.59-.14s.41.05.57.14c.17.09.3.22.39.39s.14.36.14.58c0,.09,0,.16-.02.23ZM25.71,4.84c0-.17-.06-.31-.19-.42-.12-.1-.27-.16-.45-.16-.16,0-.3.05-.42.15-.12.1-.18.24-.21.42h1.26Z"/>
        <path class="cls-1" d="M26.65,4.43c.09-.18.23-.31.39-.41.17-.1.36-.14.58-.14.27,0,.5.07.68.2s.3.32.36.56h-.51c-.04-.11-.11-.2-.2-.26-.09-.06-.2-.09-.34-.09-.19,0-.35.07-.46.2-.11.14-.17.33-.17.57s.06.44.17.57c.11.14.27.21.46.21.27,0,.45-.12.54-.36h.51c-.07.23-.19.41-.37.55-.18.14-.41.2-.68.2-.22,0-.41-.05-.58-.15-.17-.1-.3-.24-.39-.41s-.14-.38-.14-.62.05-.44.14-.62Z"/>
        <path class="cls-1" d="M30.77,3.98c.14.07.24.18.32.33.08.15.12.32.12.53v1.34h-.47v-1.27c0-.2-.05-.36-.15-.47-.1-.11-.24-.16-.42-.16s-.32.05-.42.16c-.1.11-.15.26-.15.47v1.27h-.47v-3.05h.47v1.04c.08-.1.18-.17.3-.22.12-.05.26-.08.4-.08.17,0,.33.04.46.11Z"/>
      </g>
      <path class="cls-1" d="M7.04,6.3c-.8,0-1.16-.75-1.47-1.4-.29-.61-.51-1.01-.85-1.01-.19,0-.34-.15-.34-.34s.15-.34.34-.34c.8,0,1.16.75,1.47,1.4.29.61.51,1.01.85,1.01s.56-.4.85-1.01c.32-.66.67-1.4,1.47-1.4.19,0,.34.15.34.34s-.15.34-.34.34c-.34,0-.56.4-.85,1.01-.32.66-.67,1.4-1.47,1.4Z"/>
    </g>
  </g>
</svg>